<?xml version="1.0" encoding="iso-8859-1"?>
<!-- Uploaded to: SVG Repo, www.svgrepo.com, Generator: SVG Repo Mixer Tools -->
<svg fill="#344255" version="1.1" id="Layer_1" xmlns="http://www.w3.org/2000/svg" xmlns:xlink="http://www.w3.org/1999/xlink"
	 viewBox="0 0 463 463" xml:space="preserve">
<g>
	<g>
		<path d="M367.5,176h-16c-12.958,0-23.5,10.542-23.5,23.5s10.542,23.5,23.5,23.5h8.5v32.5c0,9.098-7.402,16.5-16.5,16.5H343v-8.5
			c0-12.958-10.542-23.5-23.5-23.5H255v-17h35.11c16.005,0,29.458-11.99,31.292-27.889l15.375-133.249
			c1.812-15.707-3.182-31.485-13.702-43.289C312.555,6.769,297.454,0,281.643,0H181.357c-15.811,0-30.913,6.77-41.433,18.573
			s-15.514,27.582-13.702,43.289l15.375,133.249c1.834,15.9,15.287,27.89,31.292,27.89H208v17h-64.5
			c-12.958,0-23.5,10.542-23.5,23.5v8.5h-0.5c-9.098,0-16.5-7.402-16.5-16.5V223h8.5c12.958,0,23.5-10.542,23.5-23.5
			S124.458,176,111.5,176h-16C82.542,176,72,186.542,72,199.5c0,10.336,6.71,19.128,16,22.266V255.5c0,17.369,14.131,31.5,31.5,31.5
			h0.5v8.5c0,12.958,10.542,23.5,23.5,23.5h43.365l11.716,23.431c2.642,5.286,7.955,8.569,13.864,8.569H224v34.234
			c-9.29,3.138-16,11.93-16,22.266v18.605l-57.904,5.264C142.06,432.101,136,438.737,136,446.806v8.694c0,4.142,3.358,7.5,7.5,7.5
			c4.142,0,7.5-3.358,7.5-7.5v-8.694c0-0.26,0.196-0.475,0.455-0.498l80.045-7.277l80.044,7.277c0.26,0.023,0.456,0.238,0.456,0.498
			v8.694c0,4.142,3.358,7.5,7.5,7.5c4.142,0,7.5-3.358,7.5-7.5v-8.694c0-8.069-6.06-14.705-14.097-15.437L255,426.105V407.5
			c0-10.336-6.71-19.128-16-22.266V351h11.556c5.909,0,11.222-3.283,13.863-8.568L276.135,319H319.5c12.958,0,23.5-10.542,23.5-23.5
			V287h0.5c17.369,0,31.5-14.131,31.5-31.5v-33.734c9.29-3.138,16-11.93,16-22.266C391,186.542,380.458,176,367.5,176z M95.5,208
			c-4.687,0-8.5-3.813-8.5-8.5s3.813-8.5,8.5-8.5h16c4.687,0,8.5,3.813,8.5,8.5s-3.813,8.5-8.5,8.5H95.5z M172.89,208
			c-8.384,0-15.431-6.28-16.391-14.609L141.124,60.142c-1.323-11.461,2.322-22.975,9.999-31.589
			C158.799,19.94,169.819,15,181.357,15h100.286c11.538,0,22.558,4.94,30.234,13.553c7.677,8.614,11.321,20.127,9.999,31.589
			l-15.375,133.25C305.541,201.72,298.494,208,290.11,208H172.89z M240,223v17h-17v-17H240z M240,407.5v17.242l-7.661-0.696
			c-0.002,0-0.003,0-0.005,0l-0.156-0.014c-0.079-0.007-0.156-0.005-0.234-0.01c-0.148-0.009-0.296-0.018-0.447-0.018
			c-0.15,0-0.297,0.01-0.445,0.018c-0.078,0.005-0.154,0.002-0.232,0.01l-0.153,0.014c-0.005,0-0.01,0.001-0.015,0.001L223,424.742
			V407.5c0-4.687,3.813-8.5,8.5-8.5S240,402.813,240,407.5z M251.002,335.724c-0.085,0.17-0.256,0.276-0.447,0.276h-38.111
			c-0.19,0-0.362-0.106-0.447-0.276L203.635,319h55.729L251.002,335.724z M328,295.5c0,4.687-3.813,8.5-8.5,8.5h-176
			c-4.687,0-8.5-3.813-8.5-8.5V287h193V295.5z M328,272H135v-8.5c0-4.687,3.813-8.5,8.5-8.5h176c4.687,0,8.5,3.813,8.5,8.5V272z
			 M367.5,208h-16c-4.687,0-8.5-3.813-8.5-8.5s3.813-8.5,8.5-8.5h16c4.687,0,8.5,3.813,8.5,8.5S372.187,208,367.5,208z"/>
	</g>
</g>
</svg>
