<?xml version="1.0" encoding="iso-8859-1"?>
<!-- Uploaded to: SVG Repo, www.svgrepo.com, Generator: SVG Repo Mixer Tools -->
<svg fill="#344255" version="1.1" id="Layer_1" xmlns="http://www.w3.org/2000/svg" xmlns:xlink="http://www.w3.org/1999/xlink"
	 viewBox="0 0 463 463" xml:space="preserve">
<g>
	<g>
		<path d="M371.5,84c-6.869,0-13.729,0.82-20.5,2.407V43.5c0-8.547-6.953-15.5-15.5-15.5h-320C6.953,28,0,34.953,0,43.5v320
			c0,19.216,13.795,35.262,32,38.777v9.223c0,12.958,10.542,23.5,23.5,23.5h240c12.958,0,23.5-10.542,23.5-23.5v-9.223
			c18.205-3.515,32-19.561,32-38.777v-26.907c6.771,1.587,13.631,2.407,20.5,2.407c50.453,0,91.5-41.047,91.5-91.5v-72
			C463,125.047,421.953,84,371.5,84z M304,411.5c0,4.687-3.813,8.5-8.5,8.5h-240c-4.687,0-8.5-3.813-8.5-8.5V403h257V411.5z
			 M336,363.5c0,13.51-10.99,24.5-24.5,24.5h-272C25.99,388,15,377.01,15,363.5v-320c0-0.275,0.225-0.5,0.5-0.5h320
			c0.275,0,0.5,0.225,0.5,0.5V363.5z M351,136.066c6.339-3.32,13.351-5.066,20.5-5.066c24.537,0,44.5,19.963,44.5,44.5v72
			c0,24.537-19.963,44.5-44.5,44.5c-7.149,0-14.161-1.746-20.5-5.066V136.066z M448,247.5c0,42.183-34.317,76.5-76.5,76.5
			c-6.867,0-13.74-0.983-20.5-2.895v-17.782c6.541,2.421,13.469,3.677,20.5,3.677c32.809,0,59.5-26.691,59.5-59.5v-72
			c0-32.809-26.691-59.5-59.5-59.5c-7.031,0-13.959,1.255-20.5,3.677v-17.782C357.76,99.983,364.633,99,371.5,99
			c42.183,0,76.5,34.317,76.5,76.5V247.5z"/>
	</g>
</g>
</svg>
