<?xml version="1.0" encoding="iso-8859-1"?>
<!-- Uploaded to: SVG Repo, www.svgrepo.com, Generator: SVG Repo Mixer Tools -->
<svg fill="#344255" version="1.1" id="Layer_1" xmlns="http://www.w3.org/2000/svg" xmlns:xlink="http://www.w3.org/1999/xlink"
	 viewBox="0 0 463 463" xml:space="preserve">
<g>
	<g>
		<g>
			<path d="M303.5,0h-144C120.075,0,88,32.075,88,71.5v248C88,398.626,152.374,463,231.5,463S375,398.626,375,319.5v-248
				C375,32.075,342.925,0,303.5,0z M239,15h64.5c8.773,0,17.085,2.01,24.5,5.594V151.5c0,22.332-18.168,40.5-40.5,40.5H239v-50.234
				c9.29-3.138,16-11.93,16-22.266v-32c0-10.336-6.71-19.128-16-22.266V15z M231.5,79c4.687,0,8.5,3.813,8.5,8.5v32
				c0,4.687-3.813,8.5-8.5,8.5s-8.5-3.813-8.5-8.5v-32C223,82.813,226.813,79,231.5,79z M135,20.594
				C142.415,17.01,150.727,15,159.5,15H224v50.234c-9.29,3.138-16,11.93-16,22.266v32c0,10.336,6.71,19.128,16,22.266V192h-48.5
				c-22.332,0-40.5-18.168-40.5-40.5V20.594z M360,319.5c0,70.855-57.645,128.5-128.5,128.5S103,390.355,103,319.5v-248
				c0-15.792,6.52-30.083,17-40.346V151.5c0,30.603,24.897,55.5,55.5,55.5h112c30.603,0,55.5-24.897,55.5-55.5V31.154
				c10.48,10.262,17,24.554,17,40.346V319.5z"/>
			<path d="M231.5,224c-12.958,0-23.5,10.542-23.5,23.5s10.542,23.5,23.5,23.5s23.5-10.542,23.5-23.5S244.458,224,231.5,224z
				 M231.5,256c-4.687,0-8.5-3.813-8.5-8.5s3.813-8.5,8.5-8.5s8.5,3.813,8.5,8.5S236.187,256,231.5,256z"/>
		</g>
	</g>
</g>
</svg>
