<?xml version="1.0" encoding="iso-8859-1"?>
<!-- Uploaded to: SVG Repo, www.svgrepo.com, Generator: SVG Repo Mixer Tools -->
<svg fill="#344255" version="1.1" id="Layer_1" xmlns="http://www.w3.org/2000/svg" xmlns:xlink="http://www.w3.org/1999/xlink"
	 viewBox="0 0 463 463" xml:space="preserve">
<g>
	<g>
		<g>
			<path d="M431.5,144h-83.18c-15.72-10.477-33.929-16-52.82-16s-37.1,5.523-52.82,16H31.5C14.131,144,0,158.131,0,175.5v96
				C0,288.869,14.131,303,31.5,303H32v16.5c0,8.547,6.953,15.5,15.5,15.5h16c8.547,0,15.5-6.953,15.5-15.5V303h163.68
				c15.72,10.477,33.929,16,52.82,16s37.1-5.523,52.82-16H384v16.5c0,8.547,6.953,15.5,15.5,15.5h16c8.547,0,15.5-6.953,15.5-15.5
				V303h0.5c17.369,0,31.5-14.131,31.5-31.5v-96C463,158.131,448.869,144,431.5,144z M64,319.5c0,0.276-0.224,0.5-0.5,0.5h-16
				c-0.276,0-0.5-0.224-0.5-0.5V303h17V319.5z M416,319.5c0,0.276-0.224,0.5-0.5,0.5h-16c-0.276,0-0.5-0.224-0.5-0.5V303h17V319.5z
				 M448,271.5c0,9.098-7.402,16.5-16.5,16.5H346c-1.543,0-3.049,0.476-4.312,1.364C328.063,298.939,312.091,304,295.5,304
				s-32.563-5.061-46.188-14.636C248.049,288.476,246.543,288,245,288H31.5c-9.098,0-16.5-7.402-16.5-16.5v-96
				c0-9.098,7.402-16.5,16.5-16.5H245c1.543,0,3.049-0.476,4.312-1.364C262.938,148.061,278.909,143,295.5,143
				s32.563,5.061,46.188,14.636c1.263,0.888,2.769,1.364,4.312,1.364h85.5c9.098,0,16.5,7.402,16.5,16.5V271.5z"/>
			<path d="M295.5,160c-35.014,0-63.5,28.486-63.5,63.5c0,35.014,28.486,63.5,63.5,63.5c35.014,0,63.5-28.486,63.5-63.5
				C359,188.486,330.514,160,295.5,160z M295.5,272c-26.743,0-48.5-21.757-48.5-48.5s21.757-48.5,48.5-48.5
				c26.743,0,48.5,21.757,48.5,48.5S322.243,272,295.5,272z"/>
			<path d="M399.5,192c-12.958,0-23.5,10.542-23.5,23.5v16c0,12.958,10.542,23.5,23.5,23.5s23.5-10.542,23.5-23.5v-16
				C423,202.542,412.458,192,399.5,192z M408,231.5c0,4.687-3.813,8.5-8.5,8.5s-8.5-3.813-8.5-8.5v-16c0-4.687,3.813-8.5,8.5-8.5
				s8.5,3.813,8.5,8.5V231.5z"/>
			<path d="M55.5,248h-16c-4.142,0-7.5,3.358-7.5,7.5c0,4.142,3.358,7.5,7.5,7.5h16c4.142,0,7.5-3.358,7.5-7.5
				C63,251.358,59.642,248,55.5,248z"/>
			<path d="M103.5,248h-16c-4.142,0-7.5,3.358-7.5,7.5c0,4.142,3.358,7.5,7.5,7.5h16c4.142,0,7.5-3.358,7.5-7.5
				C111,251.358,107.642,248,103.5,248z"/>
			<path d="M151.5,248h-16c-4.142,0-7.5,3.358-7.5,7.5c0,4.142,3.358,7.5,7.5,7.5h16c4.142,0,7.5-3.358,7.5-7.5
				C159,251.358,155.642,248,151.5,248z"/>
			<path d="M55.5,216h-16c-4.142,0-7.5,3.358-7.5,7.5c0,4.142,3.358,7.5,7.5,7.5h16c4.142,0,7.5-3.358,7.5-7.5
				C63,219.358,59.642,216,55.5,216z"/>
			<path d="M103.5,216h-16c-4.142,0-7.5,3.358-7.5,7.5c0,4.142,3.358,7.5,7.5,7.5h16c4.142,0,7.5-3.358,7.5-7.5
				C111,219.358,107.642,216,103.5,216z"/>
			<path d="M151.5,216h-16c-4.142,0-7.5,3.358-7.5,7.5c0,4.142,3.358,7.5,7.5,7.5h16c4.142,0,7.5-3.358,7.5-7.5
				C159,219.358,155.642,216,151.5,216z"/>
			<path d="M55.5,184h-16c-4.142,0-7.5,3.358-7.5,7.5c0,4.142,3.358,7.5,7.5,7.5h16c4.142,0,7.5-3.358,7.5-7.5
				C63,187.358,59.642,184,55.5,184z"/>
			<path d="M103.5,184h-16c-4.142,0-7.5,3.358-7.5,7.5c0,4.142,3.358,7.5,7.5,7.5h16c4.142,0,7.5-3.358,7.5-7.5
				C111,187.358,107.642,184,103.5,184z"/>
			<path d="M151.5,184h-16c-4.142,0-7.5,3.358-7.5,7.5c0,4.142,3.358,7.5,7.5,7.5h16c4.142,0,7.5-3.358,7.5-7.5
				C159,187.358,155.642,184,151.5,184z"/>
			<path d="M295.5,192c-17.369,0-31.5,14.131-31.5,31.5s14.131,31.5,31.5,31.5c17.369,0,31.5-14.131,31.5-31.5
				S312.869,192,295.5,192z M295.5,240c-9.098,0-16.5-7.402-16.5-16.5s7.402-16.5,16.5-16.5c9.098,0,16.5,7.402,16.5,16.5
				S304.598,240,295.5,240z"/>
		</g>
	</g>
</g>
</svg>
